[IMG]http://img72.imageshack.us/img72/4758/thevow.jpg[/IMG]
[code]
The Vow 2012 TS XViD AC3-26K

Imdb: 
http://www.imdb.com/title/tt1606389/

Plot:
A car accident puts Paige (McAdams) in a coma, and when she wakes up with severe memory loss, her 

husband Leo (Tatum) works to win her heart again.

Sources:
VIDEO - INPIRAL! TNNXS
AUDIO - INPIRAL! TNNXS


Notes:
added few filters to the video to make it look nice!...
thnxs to inspiral for the audio :) line is very good thnxs bro...
nothign special here just a re-encode... of inspirals videoo not got the time anymore... to do cams 

properly..
so bottom line take it or take a one way ticket to the moon :D 

Greetz:
Xtreme 

Encode|FYA|ILLUMANTI|CM8|RX|VISION|HDSCENE|NIGHTMAREZ|xTriLL|DTRG|CRYS|REMIXHD|BIDA|RX|REFILL|INSPiRAL

|SIC|ZOMBIESZ|HOPE|Anonymous|GooN
To all the people who have helped me :P you know who you are

Anything to offer email us @: 26k@hushmail.me

Video
ID                                       : 0
Format                                   : MPEG-4 Visual
Format profile                           : Advanced Simple@L5
Format settings, BVOP                    : 2
Format settings, QPel                    : No
Format settings, GMC                     : No warppoints
Format settings, Matrix                  : Default (H.263)
Codec ID                                 : XVID
Codec ID/Hint                            : XviD
Duration                                 : 1h 39mn
Bit rate                                 : 1 498 Kbps
Width                                    : 720 pixels
Height                                   : 300 pixels
Display aspect ratio                     : 2.40:1
Frame rate                               : 29.970 fps
Color space                              : YUV
Chroma subsampling                       : 4:2:0
Bit depth                                : 8 bits
Scan type                                : Progressive
Compression mode                         : Lossy
Bits/(Pixel*Frame)                       : 0.231
Stream size                              : 1.04 GiB (91%)
Writing library                          : XviD 64

Audio
ID                                       : 1
Format                                   : AC-3
Format/Info                              : Audio Coding 3
Mode extension                           : CM (complete main)
Codec ID                                 : 2000
Duration                                 : 1h 39mn
Source duration                          : 1h 39mn
Bit rate mode                            : Constant
Bit rate                                 : 128 Kbps
Channel(s)                               : 2 channels
Channel positions                        : Front: L R
Sampling rate                            : 44.1 KHz
Bit depth                                : 16 bits
Compression mode                         : Lossy
Stream size                              : 91.1 MiB (8%)
Alignment                                : Aligned on interleaves
Interleave, duration                     : 35 ms (1.04 video frame)

[/code]
Screens:
[IMG]http://i.imgur.com/cZcke.png[/IMG]
[IMG]http://i.imgur.com/NTwsd.png[/IMG]
[IMG]http://img826.imageshack.us/img826/7653/vlcsnap2012022212h57m27.png[/IMG]
[IMG]http://img84.imageshack.us/img84/9393/vlcsnap2012022212h57m31.png[/IMG]
[IMG]http://img100.imageshack.us/img100/5794/vlcsnap2012022212h57m34.png[/IMG]
[IMG]http://img96.imageshack.us/img96/914/vlcsnap2012022212h57m37.png[/IMG]

[img]http://img851.imageshack.us/img851/5503/26ks.jpg[/img]
Thank you smallz for banner!